<svg width="64" height="64" viewBox="0 0 64 64" fill="none" xmlns="http://www.w3.org/2000/svg">
<path fill-rule="evenodd" clip-rule="evenodd" d="M24.4264 52.9867C24.2983 52.8671 24.1951 52.7235 24.1226 52.564C24.05 52.4046 24.0096 52.2324 24.0037 52.0573C23.9978 51.8822 24.0264 51.7076 24.0879 51.5436C24.1495 51.3796 24.2427 51.2293 24.3624 51.1014L42.1757 32.008L24.3624 12.9147C24.1209 12.6562 23.9919 12.3123 24.0039 11.9588C24.0159 11.6052 24.1679 11.2709 24.4264 11.0294C24.6849 10.7878 25.0288 10.6589 25.3823 10.6709C25.7359 10.6829 26.0702 10.8349 26.3117 11.0934L44.9784 31.0934C45.2086 31.3402 45.3366 31.6652 45.3366 32.0027C45.3366 32.3402 45.2086 32.6652 44.9784 32.912L26.3117 52.912C26.1924 53.0403 26.0489 53.1437 25.8895 53.2165C25.7301 53.2893 25.558 53.3299 25.3829 53.3361C25.2078 53.3423 25.0332 53.3139 24.8691 53.2526C24.705 53.1912 24.5545 53.0982 24.4264 52.9787V52.9867Z" fill="white"/>
</svg>
