<svg width="64" height="64" viewBox="0 0 64 64" fill="none" xmlns="http://www.w3.org/2000/svg">
<path fill-rule="evenodd" clip-rule="evenodd" d="M39.5731 52.9867C39.7012 52.8671 39.8044 52.7235 39.877 52.564C39.9495 52.4046 39.9899 52.2324 39.9958 52.0573C40.0018 51.8822 39.9731 51.7076 39.9116 51.5436C39.85 51.3796 39.7568 51.2293 39.6371 51.1014L21.8238 32.008L39.6371 12.9147C39.8786 12.6562 40.0076 12.3123 39.9956 11.9588C39.9836 11.6052 39.8316 11.2709 39.5731 11.0294C39.3146 10.7878 38.9708 10.6589 38.6172 10.6709C38.2636 10.6829 37.9293 10.8349 37.6878 11.0934L19.0211 31.0934C18.7909 31.3402 18.6629 31.6652 18.6629 32.0027C18.6629 32.3402 18.7909 32.6652 19.0211 32.912L37.6878 52.912C37.8072 53.0403 37.9506 53.1437 38.11 53.2165C38.2694 53.2893 38.4415 53.3299 38.6166 53.3361C38.7917 53.3423 38.9663 53.3139 39.1304 53.2526C39.2946 53.1912 39.445 53.0982 39.5731 52.9787V52.9867Z" fill="white"/>
</svg>
