<svg width="500" height="500" viewBox="0 0 500 500" fill="none" xmlns="http://www.w3.org/2000/svg">
<rect width="500" height="500" rx="250" fill="black"/>
<path d="M356.58 347.72V355H289.1V347.72L304.5 346.04C307.487 345.667 309.26 344.92 309.82 343.8C310.38 342.493 310.66 338.667 310.66 332.32V180.56L252.42 332.6H233.38L174.86 180.56V332.32C174.86 338.667 175.14 342.493 175.7 343.8C176.26 344.92 178.033 345.667 181.02 346.04L196.42 347.72V355H142.94V347.72L158.34 346.04C161.327 345.667 163.1 344.92 163.66 343.8C164.22 342.493 164.5 338.667 164.5 332.32V187.28C164.5 180.933 164.22 177.2 163.66 176.08C163.1 174.773 161.327 173.933 158.34 173.56L142.94 172.16V164.6H194.18L250.46 311.6L306.74 164.6H356.58V172.16L341.18 173.56C338.193 173.933 336.42 174.773 335.86 176.08C335.3 177.2 335.02 180.933 335.02 187.28V332.32C335.02 338.667 335.3 342.493 335.86 343.8C336.42 344.92 338.193 345.667 341.18 346.04L356.58 347.72Z" fill="white"/>
</svg>
